<svg width="400" height="400" viewBox="0 0 400 400" fill="none" xmlns="http://www.w3.org/2000/svg">
<g clip-path="url(#clip0_12_4)">
<rect y="40" width="400" height="360" rx="30" fill="#9C9C9C"/>
<rect width="400" height="360" rx="30" fill="#F8F7F7"/>
<rect x="29" y="30" width="213" height="20" rx="10" fill="#D9D9D9"/>
<rect x="30" y="69" width="106" height="20" rx="10" fill="#D9D9D9"/>
<rect x="159" y="69" width="106" height="20" rx="10" fill="#D9D9D9"/>
<rect x="29" y="108" width="170" height="20" rx="10" fill="#D9D9D9"/>
<rect x="30" y="186" width="59" height="20" rx="10" fill="#D9D9D9"/>
<rect x="114" y="186" width="128" height="20" rx="10" fill="#D9D9D9"/>
<rect x="259" y="186" width="113" height="20" rx="10" fill="#D9D9D9"/>
<rect x="29" y="147" width="236" height="20" rx="10" fill="#D9D9D9"/>
<rect x="29" y="225" width="120" height="20" rx="10" fill="#D9D9D9"/>
<rect x="178" y="225" width="120" height="20" rx="10" fill="#D9D9D9"/>
<rect x="27" y="264" width="200" height="20" rx="10" fill="#D9D9D9"/>
<rect x="256" y="264" width="89" height="20" rx="10" fill="#D9D9D9"/>
<rect x="25" y="303" width="292" height="20" rx="10" fill="#D9D9D9"/>
</g>
<defs>
<clipPath id="clip0_12_4">
<rect width="400" height="400" fill="white"/>
</clipPath>
</defs>
</svg>
