<svg width="16" height="16" viewBox="0 0 16 16" fill="none" xmlns="http://www.w3.org/2000/svg">
<rect x="1.16" y="1.33334" width="8.52" height="0.888889" rx="0.444444" fill="black"/>
<rect x="1.20001" y="3.06665" width="4.24" height="0.888889" rx="0.444444" fill="black"/>
<rect x="6.36002" y="3.06665" width="4.24" height="0.888889" rx="0.444444" fill="black"/>
<rect x="1.16" y="4.79999" width="6.8" height="0.888889" rx="0.444444" fill="black"/>
<rect x="1.20001" y="8.26666" width="2.36" height="0.888889" rx="0.444444" fill="black"/>
<rect x="4.56" y="8.26666" width="5.12" height="0.888889" rx="0.444444" fill="black"/>
<rect x="10.36" y="8.26666" width="4.52" height="0.888889" rx="0.444444" fill="black"/>
<rect x="1.16" y="6.53336" width="9.44" height="0.888889" rx="0.444444" fill="black"/>
<rect x="1.16" y="10" width="4.8" height="0.888889" rx="0.444444" fill="black"/>
<rect x="7.12" y="10" width="4.8" height="0.888889" rx="0.444444" fill="black"/>
<rect x="1.08002" y="11.7333" width="8" height="0.888889" rx="0.444444" fill="black"/>
<rect x="10.24" y="11.7333" width="3.56" height="0.888889" rx="0.444444" fill="black"/>
<rect x="1" y="13.4666" width="11.68" height="0.888889" rx="0.444444" fill="black"/>
</svg>
