<svg width="192" height="152" viewBox="0 0 192 152" fill="none" xmlns="http://www.w3.org/2000/svg">
<g clip-path="url(#clip0_1_2)">
<mask id="mask0_1_2" style="mask-type:luminance" maskUnits="userSpaceOnUse" x="0" y="0" width="192" height="152">
<path d="M192 0H0V152H192V0Z" fill="white"/>
</mask>
<g mask="url(#mask0_1_2)">
<path d="M136 16H8V144H136V16Z" fill="#F0F0F0"/>
<path d="M184 16H168V32H184V16Z" fill="#F0F0F0"/>
<path d="M10.543 9.22461H11.0352V12H10.543V10.7949H9.05859V12H8.56641V9.22461H9.05859V10.3418H10.543V9.22461ZM11.7676 9.22461H12.3066V9.75391H11.7676V9.22461ZM11.7969 10.0703H12.2773V12H11.7969V10.0703ZM12.8828 11.0762C12.8828 10.9238 12.9036 10.7878 12.9453 10.668C12.987 10.5469 13.043 10.4479 13.1133 10.3711C13.1849 10.293 13.2695 10.2285 13.3672 10.1777C13.4661 10.1257 13.569 10.0892 13.6758 10.0684C13.7839 10.0462 13.8991 10.0352 14.0215 10.0352C14.2415 10.0352 14.4447 10.0755 14.6309 10.1562L14.6992 10.1855L14.5723 10.5664L14.4961 10.541C14.362 10.4941 14.2201 10.4707 14.0703 10.4707C13.9727 10.4707 13.8835 10.4792 13.8027 10.4961C13.7233 10.513 13.6484 10.541 13.5781 10.5801C13.5078 10.6178 13.4525 10.6738 13.4121 10.748C13.373 10.8223 13.3535 10.9115 13.3535 11.0156C13.3535 11.4154 13.6068 11.6152 14.1133 11.6152C14.2396 11.6152 14.3594 11.5951 14.4727 11.5547L14.5488 11.5293L14.6797 11.8984L14.6074 11.9258C14.4121 12.0013 14.2018 12.0391 13.9766 12.0391C13.8607 12.0391 13.752 12.0299 13.6504 12.0117C13.5501 11.9935 13.4518 11.9616 13.3555 11.916C13.2591 11.8691 13.1764 11.8105 13.1074 11.7402C13.0397 11.6686 12.985 11.5762 12.9434 11.4629C12.903 11.3496 12.8828 11.2207 12.8828 11.0762ZM16.2617 10.0332C16.5846 10.0332 16.8444 10.1185 17.041 10.2891C17.2389 10.4583 17.3379 10.6953 17.3379 11C17.3379 11.3203 17.237 11.5736 17.0352 11.7598C16.8346 11.946 16.5645 12.0391 16.2246 12.0391C15.9017 12.0391 15.6432 11.9518 15.4492 11.7773C15.2565 11.6016 15.1602 11.3607 15.1602 11.0547C15.1602 10.7409 15.2585 10.4922 15.4551 10.3086C15.653 10.125 15.9219 10.0332 16.2617 10.0332ZM16.2305 10.4668C16.1302 10.4668 16.0358 10.4857 15.9473 10.5234C15.8587 10.5612 15.7839 10.6224 15.7227 10.707C15.6628 10.7917 15.6328 10.8913 15.6328 11.0059C15.6328 11.1751 15.6914 11.3177 15.8086 11.4336C15.9258 11.5482 16.0781 11.6055 16.2656 11.6055C16.4362 11.6055 16.5788 11.5553 16.6934 11.4551C16.8079 11.3548 16.8652 11.222 16.8652 11.0566C16.8652 10.9616 16.8464 10.8757 16.8086 10.7988C16.7708 10.7207 16.7214 10.6582 16.6602 10.6113C16.599 10.5645 16.5312 10.5286 16.457 10.5039C16.3828 10.4792 16.3073 10.4668 16.2305 10.4668ZM17.9844 9.04883H18.4648V12H17.9844V9.04883ZM20.2109 10.0332C20.5339 10.0332 20.7936 10.1185 20.9902 10.2891C21.1882 10.4583 21.2871 10.6953 21.2871 11C21.2871 11.3203 21.1862 11.5736 20.9844 11.7598C20.7839 11.946 20.5137 12.0391 20.1738 12.0391C19.8509 12.0391 19.5924 11.9518 19.3984 11.7773C19.2057 11.6016 19.1094 11.3607 19.1094 11.0547C19.1094 10.7409 19.2077 10.4922 19.4043 10.3086C19.6022 10.125 19.8711 10.0332 20.2109 10.0332ZM20.1797 10.4668C20.0794 10.4668 19.985 10.4857 19.8965 10.5234C19.8079 10.5612 19.7331 10.6224 19.6719 10.707C19.612 10.7917 19.582 10.8913 19.582 11.0059C19.582 11.1751 19.6406 11.3177 19.7578 11.4336C19.875 11.5482 20.0273 11.6055 20.2148 11.6055C20.3854 11.6055 20.528 11.5553 20.6426 11.4551C20.7572 11.3548 20.8145 11.222 20.8145 11.0566C20.8145 10.9616 20.7956 10.8757 20.7578 10.7988C20.7201 10.7207 20.6706 10.6582 20.6094 10.6113C20.5482 10.5645 20.4805 10.5286 20.4062 10.5039C20.332 10.4792 20.2565 10.4668 20.1797 10.4668ZM22.2715 10.1738C22.4746 10.0801 22.6914 10.0332 22.9219 10.0332C23.069 10.0332 23.2031 10.0612 23.3242 10.1172L23.3926 10.1484L23.2402 10.5488L23.1641 10.5195C23.0729 10.4844 22.974 10.4668 22.8672 10.4668C22.6966 10.4668 22.5326 10.4974 22.375 10.5586V12H21.8945V10.0703H22.2148L22.2715 10.1738Z" fill="black"/>
<path d="M169.811 9.19922C170.07 9.19922 170.326 9.23763 170.578 9.31445L170.658 9.33789L170.498 9.79102L170.424 9.76953C170.188 9.70443 169.973 9.67188 169.779 9.67188C169.588 9.67188 169.424 9.70312 169.287 9.76562C169.152 9.82812 169.084 9.9082 169.084 10.0059C169.084 10.0697 169.114 10.1257 169.174 10.1738C169.235 10.222 169.314 10.263 169.41 10.2969C169.507 10.3294 169.613 10.362 169.729 10.3945C169.846 10.4271 169.963 10.4648 170.08 10.5078C170.197 10.5508 170.304 10.6003 170.4 10.6562C170.497 10.7122 170.575 10.7871 170.635 10.8809C170.696 10.9733 170.727 11.0801 170.727 11.2012C170.727 11.2793 170.713 11.3568 170.686 11.4336C170.66 11.5091 170.615 11.584 170.551 11.6582C170.488 11.7324 170.41 11.7975 170.316 11.8535C170.224 11.9082 170.105 11.9531 169.961 11.9883C169.818 12.0221 169.657 12.0391 169.479 12.0391C169.3 12.0391 169.139 12.0228 168.996 11.9902C168.853 11.9564 168.701 11.9082 168.541 11.8457L168.469 11.8184L168.635 11.3457L168.711 11.375C169.04 11.4922 169.312 11.5508 169.525 11.5508C169.726 11.5508 169.888 11.5202 170.012 11.459C170.137 11.3978 170.199 11.3171 170.199 11.2168C170.199 11.1608 170.18 11.1107 170.143 11.0664C170.105 11.0221 170.054 10.985 169.99 10.9551C169.926 10.9238 169.853 10.8952 169.77 10.8691C169.688 10.8431 169.601 10.8177 169.51 10.793C169.419 10.7682 169.328 10.7415 169.236 10.7129C169.145 10.6842 169.058 10.6497 168.975 10.6094C168.893 10.569 168.82 10.5234 168.756 10.4727C168.692 10.4219 168.641 10.3587 168.604 10.2832C168.566 10.2064 168.547 10.1211 168.547 10.0273C168.547 9.79297 168.661 9.59635 168.891 9.4375C169.121 9.27865 169.428 9.19922 169.811 9.19922ZM171.078 10.0703H171.629L172.264 11.5527L172.842 10.0703H173.348L172.094 13.0371H171.508L171.984 12.0156L171.078 10.0703ZM174.66 10.4883C174.548 10.4883 174.396 10.5234 174.203 10.5938V12H173.723V10.0703H174.08L174.135 10.1973C174.365 10.0879 174.592 10.0332 174.816 10.0332C175.04 10.0332 175.216 10.0977 175.342 10.2266C175.584 10.099 175.842 10.0352 176.117 10.0352C176.237 10.0352 176.342 10.0495 176.434 10.0781C176.525 10.1068 176.598 10.1452 176.652 10.1934C176.708 10.2415 176.753 10.3021 176.787 10.375C176.822 10.4466 176.846 10.5208 176.859 10.5977C176.872 10.6732 176.879 10.7591 176.879 10.8555V12H176.398V10.8613C176.398 10.7389 176.366 10.6465 176.301 10.584C176.237 10.5202 176.133 10.4883 175.99 10.4883C175.869 10.4883 175.713 10.5234 175.522 10.5938C175.533 10.6615 175.539 10.7533 175.539 10.8691V12H175.059V10.8535C175.059 10.61 174.926 10.4883 174.66 10.4883ZM177.609 9.04883H178.09V10.1172C178.258 10.0599 178.429 10.0312 178.604 10.0312C178.703 10.0312 178.798 10.041 178.889 10.0605C178.981 10.0788 179.072 10.112 179.162 10.1602C179.252 10.2083 179.329 10.2689 179.395 10.3418C179.461 10.4134 179.514 10.5072 179.555 10.623C179.596 10.7376 179.617 10.8678 179.617 11.0137C179.617 11.334 179.52 11.5853 179.326 11.7676C179.132 11.9486 178.869 12.0391 178.537 12.0391C178.341 12.0391 178.159 12.0052 177.992 11.9375L177.965 12H177.609V9.04883ZM178.475 10.457C178.346 10.457 178.217 10.4785 178.09 10.5215V11.5703C178.221 11.6081 178.352 11.627 178.482 11.627C178.542 11.627 178.6 11.6224 178.656 11.6133C178.712 11.6042 178.77 11.5872 178.83 11.5625C178.891 11.5365 178.944 11.5033 178.988 11.4629C179.034 11.4225 179.071 11.3685 179.1 11.3008C179.13 11.2318 179.145 11.153 179.145 11.0645C179.145 10.9668 179.13 10.8802 179.1 10.8047C179.07 10.7292 179.032 10.6706 178.986 10.6289C178.941 10.5859 178.887 10.5508 178.824 10.5234C178.762 10.4961 178.703 10.4785 178.647 10.4707C178.592 10.4616 178.535 10.457 178.475 10.457ZM181.227 10.0332C181.55 10.0332 181.809 10.1185 182.006 10.2891C182.204 10.4583 182.303 10.6953 182.303 11C182.303 11.3203 182.202 11.5736 182 11.7598C181.8 11.946 181.529 12.0391 181.189 12.0391C180.867 12.0391 180.608 11.9518 180.414 11.7773C180.221 11.6016 180.125 11.3607 180.125 11.0547C180.125 10.7409 180.223 10.4922 180.42 10.3086C180.618 10.125 180.887 10.0332 181.227 10.0332ZM181.195 10.4668C181.095 10.4668 181.001 10.4857 180.912 10.5234C180.824 10.5612 180.749 10.6224 180.688 10.707C180.628 10.7917 180.598 10.8913 180.598 11.0059C180.598 11.1751 180.656 11.3177 180.773 11.4336C180.891 11.5482 181.043 11.6055 181.23 11.6055C181.401 11.6055 181.544 11.5553 181.658 11.4551C181.773 11.3548 181.83 11.222 181.83 11.0566C181.83 10.9616 181.811 10.8757 181.773 10.7988C181.736 10.7207 181.686 10.6582 181.625 10.6113C181.564 10.5645 181.496 10.5286 181.422 10.5039C181.348 10.4792 181.272 10.4668 181.195 10.4668ZM182.949 9.04883H183.43V12H182.949V9.04883ZM184.143 9.22461H184.682V9.75391H184.143V9.22461ZM184.172 10.0703H184.652V12H184.172V10.0703ZM185.258 11.0762C185.258 10.9238 185.279 10.7878 185.32 10.668C185.362 10.5469 185.418 10.4479 185.488 10.3711C185.56 10.293 185.645 10.2285 185.742 10.1777C185.841 10.1257 185.944 10.0892 186.051 10.0684C186.159 10.0462 186.274 10.0352 186.397 10.0352C186.617 10.0352 186.82 10.0755 187.006 10.1562L187.074 10.1855L186.947 10.5664L186.871 10.541C186.737 10.4941 186.595 10.4707 186.445 10.4707C186.348 10.4707 186.258 10.4792 186.178 10.4961C186.098 10.513 186.023 10.541 185.953 10.5801C185.883 10.6178 185.828 10.6738 185.787 10.748C185.748 10.8223 185.729 10.9115 185.729 11.0156C185.729 11.4154 185.982 11.6152 186.488 11.6152C186.615 11.6152 186.734 11.5951 186.848 11.5547L186.924 11.5293L187.055 11.8984L186.982 11.9258C186.787 12.0013 186.577 12.0391 186.352 12.0391C186.236 12.0391 186.127 12.0299 186.025 12.0117C185.925 11.9935 185.827 11.9616 185.73 11.916C185.634 11.8691 185.551 11.8105 185.482 11.7402C185.415 11.6686 185.36 11.5762 185.318 11.4629C185.278 11.3496 185.258 11.2207 185.258 11.0762Z" fill="black"/>
<path opacity="0.1" d="M72 139.504C104.863 139.504 131.504 112.863 131.504 80C131.504 47.1368 104.863 20.4958 72 20.4958C39.1368 20.4958 12.4959 47.1368 12.4959 80C12.4959 112.863 39.1368 139.504 72 139.504Z" stroke="black" stroke-width="0.99" stroke-dasharray="0.99 0.99"/>
<path opacity="0.1" d="M106.804 24.4949H37.196C32.3906 24.4949 28.495 28.045 28.495 32.4242V127.576C28.495 131.955 32.3906 135.505 37.196 135.505H106.804C111.609 135.505 115.505 131.955 115.505 127.576V32.4242C115.505 28.045 111.609 24.4949 106.804 24.4949Z" stroke="black" stroke-width="0.99" stroke-dasharray="0.99 0.99"/>
<path opacity="0.1" d="M115.581 28.4952H28.4191C24.0429 28.4952 20.4953 32.0429 20.4953 36.4191V123.581C20.4953 127.957 24.0429 131.505 28.4191 131.505H115.581C119.957 131.505 123.505 127.957 123.505 123.581V36.4191C123.505 32.0429 119.957 28.4952 115.581 28.4952Z" stroke="black" stroke-width="0.99" stroke-dasharray="0.99 0.99"/>
<path opacity="0.1" d="M119.576 44.4949H24.4243C20.0451 44.4949 16.495 48.3905 16.495 53.1959V122.804C16.495 127.609 20.0451 131.505 24.4243 131.505H119.576C123.955 131.505 127.505 127.609 127.505 122.804V53.1959C127.505 48.3905 123.955 44.4949 119.576 44.4949Z" stroke="black" stroke-width="0.99" stroke-dasharray="0.99 0.99"/>
<path d="M8.00003 133H136" stroke="#62A0EA" stroke-width="2"/>
<mask id="mask1_1_2" style="mask-type:luminance" maskUnits="userSpaceOnUse" x="28" y="44" width="89" height="89">
<path d="M117 44H28V133H117V44Z" fill="white"/>
</mask>
<g mask="url(#mask1_1_2)">
<mask id="mask2_1_2" style="mask-type:luminance" maskUnits="userSpaceOnUse" x="28" y="44" width="89" height="89">
<path d="M117 44H28V133H117V44Z" fill="white"/>
</mask>
<g mask="url(#mask2_1_2)">
<path d="M110.325 52.9H34.675C30.9885 52.9 28 55.8885 28 59.575V126.325C28 130.011 30.9885 133 34.675 133H110.325C114.011 133 117 130.011 117 126.325V59.575C117 55.8885 114.011 52.9 110.325 52.9Z" fill="#9C9C9C"/>
<path d="M110.325 44H34.675C30.9885 44 28 46.9885 28 50.675V117.425C28 121.111 30.9885 124.1 34.675 124.1H110.325C114.011 124.1 117 121.111 117 117.425V50.675C117 46.9885 114.011 44 110.325 44Z" fill="#F8F7F7"/>
<path d="M79.62 50.675H36.6775C35.4487 50.675 34.4525 51.6712 34.4525 52.9C34.4525 54.1288 35.4487 55.125 36.6775 55.125H79.62C80.8488 55.125 81.845 54.1288 81.845 52.9C81.845 51.6712 80.8488 50.675 79.62 50.675Z" fill="#D9D9D9"/>
<path d="M56.035 59.3525H36.9C35.6712 59.3525 34.675 60.3487 34.675 61.5775C34.675 62.8063 35.6712 63.8025 36.9 63.8025H56.035C57.2638 63.8025 58.26 62.8063 58.26 61.5775C58.26 60.3487 57.2638 59.3525 56.035 59.3525Z" fill="#D9D9D9"/>
<path d="M84.7375 59.3525H65.6025C64.3737 59.3525 63.3775 60.3487 63.3775 61.5775C63.3775 62.8063 64.3737 63.8025 65.6025 63.8025H84.7375C85.9663 63.8025 86.9625 62.8063 86.9625 61.5775C86.9625 60.3487 85.9663 59.3525 84.7375 59.3525Z" fill="#D9D9D9"/>
<path d="M70.0525 68.03H36.6775C35.4487 68.03 34.4525 69.0262 34.4525 70.255C34.4525 71.4838 35.4487 72.48 36.6775 72.48H70.0525C71.2813 72.48 72.2775 71.4838 72.2775 70.255C72.2775 69.0262 71.2813 68.03 70.0525 68.03Z" fill="#D9D9D9"/>
<path d="M45.5775 85.385H36.9C35.6712 85.385 34.675 86.3812 34.675 87.61C34.675 88.8388 35.6712 89.835 36.9 89.835H45.5775C46.8063 89.835 47.8025 88.8388 47.8025 87.61C47.8025 86.3812 46.8063 85.385 45.5775 85.385Z" fill="#D9D9D9"/>
<path d="M79.62 85.385H55.59C54.3612 85.385 53.365 86.3812 53.365 87.61C53.365 88.8388 54.3612 89.835 55.59 89.835H79.62C80.8488 89.835 81.845 88.8388 81.845 87.61C81.845 86.3812 80.8488 85.385 79.62 85.385Z" fill="#D9D9D9"/>
<path d="M108.545 85.385H87.8525C86.6237 85.385 85.6275 86.3812 85.6275 87.61C85.6275 88.8388 86.6237 89.835 87.8525 89.835H108.545C109.774 89.835 110.77 88.8388 110.77 87.61C110.77 86.3812 109.774 85.385 108.545 85.385Z" fill="#D9D9D9"/>
<path d="M84.7375 76.7075H36.6775C35.4487 76.7075 34.4525 77.7037 34.4525 78.9325C34.4525 80.1613 35.4487 81.1575 36.6775 81.1575H84.7375C85.9663 81.1575 86.9625 80.1613 86.9625 78.9325C86.9625 77.7037 85.9663 76.7075 84.7375 76.7075Z" fill="#D9D9D9"/>
<path d="M58.9275 94.0625H36.6775C35.4487 94.0625 34.4525 95.0587 34.4525 96.2875C34.4525 97.5163 35.4487 98.5125 36.6775 98.5125H58.9275C60.1563 98.5125 61.1525 97.5163 61.1525 96.2875C61.1525 95.0587 60.1563 94.0625 58.9275 94.0625Z" fill="#D9D9D9"/>
<path d="M92.08 94.0625H69.83C68.6012 94.0625 67.605 95.0587 67.605 96.2875C67.605 97.5163 68.6012 98.5125 69.83 98.5125H92.08C93.3088 98.5125 94.305 97.5163 94.305 96.2875C94.305 95.0587 93.3088 94.0625 92.08 94.0625Z" fill="#D9D9D9"/>
<path d="M76.2825 102.74H36.2325C35.0037 102.74 34.0075 103.736 34.0075 104.965C34.0075 106.194 35.0037 107.19 36.2325 107.19H76.2825C77.5113 107.19 78.5075 106.194 78.5075 104.965C78.5075 103.736 77.5113 102.74 76.2825 102.74Z" fill="#D9D9D9"/>
<path d="M102.537 102.74H87.185C85.9562 102.74 84.96 103.736 84.96 104.965C84.96 106.194 85.9562 107.19 87.185 107.19H102.537C103.766 107.19 104.762 106.194 104.762 104.965C104.762 103.736 103.766 102.74 102.537 102.74Z" fill="#D9D9D9"/>
<path d="M96.3075 111.418H35.7875C34.5587 111.418 33.5625 112.414 33.5625 113.643C33.5625 114.871 34.5587 115.868 35.7875 115.868H96.3075C97.5363 115.868 98.5325 114.871 98.5325 113.643C98.5325 112.414 97.5363 111.418 96.3075 111.418Z" fill="#D9D9D9"/>
</g>
</g>
<path d="M177.236 17.3333H169.604C169.359 17.3333 169.16 17.5323 169.16 17.7777C169.16 18.0232 169.359 18.2222 169.604 18.2222H177.236C177.481 18.2222 177.68 18.0232 177.68 17.7777C177.68 17.5323 177.481 17.3333 177.236 17.3333Z" fill="black"/>
<path d="M172.996 19.0667H169.644C169.399 19.0667 169.2 19.2657 169.2 19.5111C169.2 19.7566 169.399 19.9556 169.644 19.9556H172.996C173.241 19.9556 173.44 19.7566 173.44 19.5111C173.44 19.2657 173.241 19.0667 172.996 19.0667Z" fill="black"/>
<path d="M178.156 19.0667H174.804C174.559 19.0667 174.36 19.2657 174.36 19.5111C174.36 19.7566 174.559 19.9556 174.804 19.9556H178.156C178.401 19.9556 178.6 19.7566 178.6 19.5111C178.6 19.2657 178.401 19.0667 178.156 19.0667Z" fill="black"/>
<path d="M175.516 20.8H169.604C169.359 20.8 169.16 20.999 169.16 21.2444V21.2444C169.16 21.4899 169.359 21.6889 169.604 21.6889H175.516C175.761 21.6889 175.96 21.4899 175.96 21.2444C175.96 20.999 175.761 20.8 175.516 20.8Z" fill="black"/>
<path d="M171.116 24.2667H169.644C169.399 24.2667 169.2 24.4657 169.2 24.7111V24.7111C169.2 24.9566 169.399 25.1556 169.644 25.1556H171.116C171.361 25.1556 171.56 24.9566 171.56 24.7111V24.7111C171.56 24.4657 171.361 24.2667 171.116 24.2667Z" fill="black"/>
<path d="M177.236 24.2667H173.004C172.759 24.2667 172.56 24.4657 172.56 24.7111V24.7111C172.56 24.9566 172.759 25.1556 173.004 25.1556H177.236C177.481 25.1556 177.68 24.9566 177.68 24.7111C177.68 24.4657 177.481 24.2667 177.236 24.2667Z" fill="black"/>
<path d="M182.436 24.2667H178.804C178.559 24.2667 178.36 24.4657 178.36 24.7111V24.7111C178.36 24.9566 178.559 25.1556 178.804 25.1556H182.436C182.681 25.1556 182.88 24.9566 182.88 24.7111C182.88 24.4657 182.681 24.2667 182.436 24.2667Z" fill="black"/>
<path d="M178.156 22.5334H169.604C169.359 22.5334 169.16 22.7324 169.16 22.9778C169.16 23.2233 169.359 23.4223 169.604 23.4223H178.156C178.401 23.4223 178.6 23.2233 178.6 22.9778C178.6 22.7324 178.401 22.5334 178.156 22.5334Z" fill="black"/>
<path d="M173.516 26H169.604C169.359 26 169.16 26.199 169.16 26.4444C169.16 26.6899 169.359 26.8889 169.604 26.8889H173.516C173.761 26.8889 173.96 26.6899 173.96 26.4444C173.96 26.199 173.761 26 173.516 26Z" fill="black"/>
<path d="M179.476 26H175.564C175.319 26 175.12 26.199 175.12 26.4444C175.12 26.6899 175.319 26.8889 175.564 26.8889H179.476C179.721 26.8889 179.92 26.6899 179.92 26.4444C179.92 26.199 179.721 26 179.476 26Z" fill="black"/>
<path d="M176.636 27.7333H169.524C169.279 27.7333 169.08 27.9323 169.08 28.1777V28.1777C169.08 28.4232 169.279 28.6222 169.524 28.6222H176.636C176.881 28.6222 177.08 28.4232 177.08 28.1777C177.08 27.9323 176.881 27.7333 176.636 27.7333Z" fill="black"/>
<path d="M181.356 27.7333H178.684C178.439 27.7333 178.24 27.9323 178.24 28.1777V28.1777C178.24 28.4232 178.439 28.6222 178.684 28.6222H181.356C181.601 28.6222 181.8 28.4232 181.8 28.1777V28.1777C181.8 27.9323 181.601 27.7333 181.356 27.7333Z" fill="black"/>
<path d="M180.236 29.4666H169.444C169.199 29.4666 169 29.6656 169 29.911V29.911C169 30.1565 169.199 30.3555 169.444 30.3555H180.236C180.481 30.3555 180.68 30.1565 180.68 29.911C180.68 29.6656 180.481 29.4666 180.236 29.4666Z" fill="black"/>
</g>
</g>
<defs>
<clipPath id="clip0_1_2">
<rect width="192" height="152" fill="white"/>
</clipPath>
</defs>
</svg>
